# xmcd
# Track frame offsets:
# 150
# 2927
# 19604
# 35130
# 54647
# 71788
# 94790
# 113209
# 129573
# 147365
# 165511
# 179265
# 203814
# 219150
#
# Disc length: 3351 seconds
# Revision: 0
# Processed by: cddbd v1.4PL0 Copyright (c) Steve Scherf et al.
# Submitted via: VisiTrax 2.9.5.181 - For more info visit www.synapsa.com
#
DISCID=c70d150e
DTITLE=Blaque - Blaque
DYEAR=1998
DGENRE=R&B
TTITLE0=Blaque Intro
TTITLE1=Roll With Me
TTITLE2=I Do
TTITLE3=Lenny
TTITLE4=Rainbow Drive
TTITLE5=808
TTITLE6=Time after Time
TTITLE7=Bring it all to me (w/ NSync)
TTITLE8=Mind of a King
TTITLE9=Don't go Looking for Love
TTITLE10=Release Me
TTITLE11=Right Next to Me
TTITLE12=Stay by your Side
TTITLE13=When The Last Teardrop Falls
EXTD=
EXTT0=
EXTT1=
EXTT2=
EXTT3=
EXTT4=
EXTT5=
EXTT6=
EXTT7=
EXTT8=
EXTT9=
EXTT10=
EXTT11=
EXTT12=
EXTT13=
PLAYORDER=
